<?xml version="1.0" encoding="utf-8"?>
<!-- Generator: Adobe Illustrator 19.0.0, SVG Export Plug-In . SVG Version: 6.00 Build 0)  -->
<!DOCTYPE svg PUBLIC "-//W3C//DTD SVG 1.1//EN" "http://www.w3.org/Graphics/SVG/1.1/DTD/svg11.dtd">
<svg version="1.1" id="Layer_1" xmlns="http://www.w3.org/2000/svg" xmlns:xlink="http://www.w3.org/1999/xlink" x="0px" y="0px"
	 width="39px" height="32px" viewBox="-492 1009 39 32" style="enable-background:new -492 1009 39 32;" xml:space="preserve">
<style type="text/css">
	.st0{fill:#000000;}
</style>
<path id="XMLID_5_" class="st0" d="M-459.4,1018.2c0,0.3,0,0.6,0,0.9c0,9-6.8,19.4-19.4,19.4c-3.9,0-7.4-1.2-10.4-3.1
	c0.6,0.1,1.1,0.1,1.6,0.1c3.2,0,6.2-1.1,8.5-2.9c-3-0.1-5.5-2-6.4-4.7c0.4,0.1,0.9,0.1,1.3,0.1c0.6,0,1.3-0.1,1.8-0.2
	c-3.1-0.6-5.5-3.4-5.5-6.7v-0.1c1,0.5,1.9,0.8,3.1,0.9c-1.8-1.3-3-3.3-3-5.7c0-1.3,0.3-2.4,1-3.5c3.4,4.1,8.4,6.8,14.1,7.1
	c-0.1-0.5-0.2-1.1-0.2-1.5c0-3.8,3.1-6.8,6.8-6.8c1.9,0,3.8,0.9,5,2.1c1.5-0.3,3-0.9,4.3-1.6c-0.5,1.5-1.5,2.9-3,3.8
	c1.4-0.2,2.7-0.6,4-1.1C-456.9,1016-458.1,1017.3-459.4,1018.2z"/>
</svg>
